<?xml version="1.0" standalone="no"?>
<!DOCTYPE svg PUBLIC "-//W3C//DTD SVG 20010904//EN"
 "http://www.w3.org/TR/2001/REC-SVG-20010904/DTD/svg10.dtd">
<svg version="1.0" xmlns="http://www.w3.org/2000/svg"
 width="512.000000pt" height="512.000000pt" viewBox="0 0 512.000000 512.000000"
 preserveAspectRatio="xMidYMid meet">

<g transform="translate(0.000000,512.000000) scale(0.100000,-0.100000)"
fill="#000000" stroke="none">
<path d="M971 5109 c-128 -25 -257 -125 -311 -241 -37 -80 -50 -146 -50 -264
l0 -94 -94 0 c-51 0 -117 -5 -147 -10 -186 -35 -330 -184 -361 -374 -31 -185
75 -387 244 -466 80 -37 146 -50 264 -50 l94 0 0 -300 0 -300 -94 0 c-175 0
-286 -39 -382 -134 -174 -174 -174 -458 0 -632 96 -95 207 -134 382 -134 l94
0 0 -300 0 -300 -94 0 c-51 0 -117 -5 -147 -10 -186 -35 -330 -184 -361 -374
-31 -185 75 -387 244 -466 80 -37 146 -50 263 -50 l92 0 6 -123 c6 -136 16
-176 65 -260 65 -112 180 -195 303 -217 37 -7 597 -9 1650 -8 l1594 3 100 27
c348 95 623 352 738 689 63 183 72 402 24 590 -44 168 -102 283 -213 420 l-54
66 0 1450 c0 945 -4 1469 -10 1504 -34 180 -179 325 -359 359 -67 12 -3415 12
-3480 -1z m3469 -309 c26 -13 47 -34 60 -60 20 -39 20 -56 20 -1386 0 -1278
-1 -1346 -17 -1338 -10 4 -56 21 -103 37 -556 194 -1172 -132 -1338 -708 -99
-343 -13 -719 226 -988 l46 -52 -1135 -3 c-624 -1 -1148 0 -1166 3 -41 7 -92
50 -109 92 -9 20 -14 71 -14 135 l0 103 65 34 c116 60 203 183 227 321 31 182
-65 378 -227 461 l-65 34 0 325 0 325 65 34 c162 83 258 279 227 461 -24 138
-111 261 -227 321 l-65 34 0 325 0 325 65 34 c116 60 203 183 227 321 31 182
-65 378 -227 461 l-65 34 0 108 c0 128 17 175 78 206 36 20 64 20 1725 21
1672 0 1688 0 1727 -20z m-3610 -610 c45 -23 80 -80 80 -130 0 -50 -35 -107
-80 -130 -35 -18 -59 -20 -225 -20 -216 0 -249 9 -285 80 -25 50 -25 90 0 140
36 71 66 79 283 80 169 0 192 -2 227 -20z m0 -1500 c45 -23 80 -80 80 -130 0
-50 -35 -107 -80 -130 -35 -18 -59 -20 -225 -20 -216 0 -249 9 -285 80 -25 50
-25 90 0 140 36 71 66 79 283 80 169 0 192 -2 227 -20z m3425 -903 c264 -73
470 -279 542 -542 24 -88 28 -230 9 -325 -58 -283 -246 -495 -521 -587 -71
-23 -95 -26 -215 -26 -120 0 -144 3 -215 26 -432 144 -648 608 -475 1017 91
214 305 395 520 439 30 6 64 13 75 15 37 9 229 -3 280 -17z m-3425 -597 c45
-23 80 -80 80 -130 0 -50 -35 -107 -80 -130 -35 -18 -59 -20 -225 -20 -216 0
-249 9 -285 80 -25 50 -25 90 0 140 36 71 66 79 283 80 169 0 192 -2 227 -20z"/>
<path d="M2490 4189 c-19 -11 -146 -132 -282 -267 l-248 -246 -128 126 c-70
70 -140 132 -155 137 -126 48 -244 -70 -196 -196 13 -35 339 -366 398 -404 59
-38 103 -38 162 0 57 37 632 616 653 658 34 68 6 153 -64 192 -48 27 -95 27
-140 0z"/>
<path d="M3098 3889 c-43 -22 -78 -81 -78 -129 0 -50 35 -107 80 -130 38 -19
58 -20 520 -20 462 0 482 1 520 20 45 23 80 80 80 130 0 50 -35 107 -80 130
-38 19 -57 20 -522 20 -461 -1 -485 -2 -520 -21z"/>
<path d="M2490 2989 c-19 -11 -146 -132 -282 -267 l-248 -246 -128 126 c-70
70 -140 132 -155 137 -126 48 -244 -70 -196 -196 13 -35 339 -366 398 -404 59
-38 103 -38 162 0 57 37 632 616 653 658 34 68 6 153 -64 192 -48 27 -95 27
-140 0z"/>
<path d="M3098 2689 c-43 -22 -78 -81 -78 -129 0 -50 35 -107 80 -130 38 -19
58 -20 520 -20 462 0 482 1 520 20 45 23 80 80 80 130 0 50 -35 107 -80 130
-38 19 -57 20 -522 20 -461 -1 -485 -2 -520 -21z"/>
<path d="M2490 1789 c-19 -11 -146 -132 -282 -267 l-248 -246 -128 126 c-70
70 -140 132 -155 137 -126 48 -244 -70 -196 -196 13 -35 339 -366 398 -404 59
-38 103 -38 162 0 57 37 632 616 653 658 34 68 6 153 -64 192 -48 27 -95 27
-140 0z"/>
<path d="M3998 1489 c-68 -35 -78 -71 -78 -279 0 -210 10 -244 80 -280 35 -18
59 -20 220 -20 161 0 185 2 220 20 45 23 80 80 80 130 0 50 -35 107 -80 130
-31 16 -59 20 -130 20 l-90 0 0 90 c0 112 -20 159 -80 190 -49 25 -94 25 -142
-1z"/>
</g>
</svg>
