<?xml version="1.0" standalone="no"?>
<!DOCTYPE svg PUBLIC "-//W3C//DTD SVG 20010904//EN"
 "http://www.w3.org/TR/2001/REC-SVG-20010904/DTD/svg10.dtd">
<svg version="1.0" xmlns="http://www.w3.org/2000/svg"
 width="512.000000pt" height="512.000000pt" viewBox="0 0 512.000000 512.000000"
 preserveAspectRatio="xMidYMid meet">

<g transform="translate(0.000000,512.000000) scale(0.100000,-0.100000)"
fill="#000000" stroke="none">
<path d="M2446 5104 c-127 -31 -250 -128 -311 -246 l-30 -57 -202 -3 c-185 -3
-204 -5 -229 -24 -60 -44 -69 -67 -72 -184 l-4 -109 -356 -3 -357 -3 -56 -26
c-71 -33 -125 -87 -158 -158 l-26 -56 0 -1995 0 -1995 26 -56 c33 -71 87 -125
158 -158 l56 -26 1675 0 1675 0 56 26 c71 33 125 87 158 158 l26 56 0 1995 0
1995 -26 56 c-33 71 -87 125 -158 158 l-56 26 -357 3 -356 3 -4 109 c-3 117
-12 140 -72 184 -25 19 -44 21 -229 24 l-202 3 -30 57 c-101 196 -325 298
-539 246z m202 -331 c44 -33 63 -67 72 -133 9 -67 28 -100 74 -134 25 -19 44
-21 217 -24 l189 -3 0 -160 0 -159 -640 0 -640 0 0 160 0 160 175 0 c126 0
185 4 208 14 43 17 85 68 91 109 3 18 8 49 11 69 7 44 47 95 90 114 40 19 120
12 153 -13z m-1046 -722 c3 -118 12 -141 72 -185 27 -21 34 -21 886 -21 852 0
859 0 886 21 60 44 69 67 72 185 l4 109 319 0 319 0 0 -1920 0 -1920 -1600 0
-1600 0 0 1920 0 1920 319 0 319 0 4 -109z"/>
<path d="M2340 3190 c-14 -6 -150 -135 -302 -288 l-278 -276 -122 121 c-132
130 -156 143 -235 128 -49 -9 -109 -69 -118 -118 -16 -85 -8 -97 203 -309 168
-167 203 -198 234 -203 91 -17 84 -22 465 358 251 250 356 361 364 385 22 68
-2 140 -63 185 -31 23 -111 32 -148 17z"/>
<path d="M2975 2866 c-67 -29 -105 -106 -91 -181 9 -47 59 -102 104 -115 24
-7 160 -10 394 -8 342 3 358 4 384 24 53 39 69 71 69 134 0 63 -16 95 -69 134
-26 20 -41 21 -394 23 -290 2 -373 0 -397 -11z"/>
<path d="M2340 1910 c-14 -6 -150 -135 -302 -288 l-278 -276 -122 121 c-132
130 -156 143 -234 129 -47 -9 -111 -73 -120 -120 -15 -84 -7 -96 204 -308 167
-167 203 -198 234 -203 91 -17 84 -22 465 358 251 250 356 361 364 385 22 68
-2 140 -63 185 -31 23 -111 32 -148 17z"/>
<path d="M2975 1586 c-67 -29 -105 -106 -91 -181 9 -47 59 -102 104 -115 24
-7 160 -10 394 -8 342 3 358 4 384 24 53 39 69 71 69 134 0 63 -16 95 -69 134
-26 20 -41 21 -394 23 -290 2 -373 0 -397 -11z"/>
</g>
</svg>
